<?xml version="1.0" encoding="UTF-8"?>
<svg width="240px" height="160px" viewBox="0 0 240 160" version="1.1" xmlns="http://www.w3.org/2000/svg" xmlns:xlink="http://www.w3.org/1999/xlink">
    <!-- Generator: Sketch 63.1 (92452) - https://sketch.com -->
    <title>banner/06-海淘进口</title>
    <desc>Created with Sketch.</desc>
    <defs>
        <linearGradient x1="56.4977248%" y1="100%" x2="56.4977248%" y2="0%" id="linearGradient-1">
            <stop stop-color="#B7DFFF" offset="0%"></stop>
            <stop stop-color="#C9E7FF" offset="100%"></stop>
        </linearGradient>
        <linearGradient x1="56.4977248%" y1="100%" x2="56.4977248%" y2="0%" id="linearGradient-2">
            <stop stop-color="#F7F8F9" offset="0%"></stop>
            <stop stop-color="#DBEFFF" offset="100%"></stop>
        </linearGradient>
        <linearGradient x1="47.3531845%" y1="0%" x2="47.3531845%" y2="100%" id="linearGradient-3">
            <stop stop-color="#DBEFFF" offset="0%"></stop>
            <stop stop-color="#EDF7FF" offset="100%"></stop>
        </linearGradient>
        <ellipse id="path-4" cx="96" cy="24.5364197" rx="96" ry="24"></ellipse>
        <filter x="-12.9%" y="-33.4%" width="125.9%" height="166.9%" filterUnits="objectBoundingBox" id="filter-6">
            <feGaussianBlur stdDeviation="4" in="SourceGraphic"></feGaussianBlur>
        </filter>
        <radialGradient cx="29.6788541%" cy="36.7200402%" fx="29.6788541%" fy="36.7200402%" r="76.2495773%" id="radialGradient-7">
            <stop stop-color="#A5D7FF" offset="0%"></stop>
            <stop stop-color="#5DB7FF" offset="64.7117821%"></stop>
            <stop stop-color="#81C7FF" offset="100%"></stop>
        </radialGradient>
        <radialGradient cx="29.6788541%" cy="36.7200402%" fx="29.6788541%" fy="36.7200402%" r="81.9412621%" gradientTransform="translate(0.296789,0.367200),scale(1.000000,0.888889),rotate(54.318685),translate(-0.296789,-0.367200)" id="radialGradient-8">
            <stop stop-color="#93CFFF" offset="0%"></stop>
            <stop stop-color="#4BAFFF" offset="64.7117821%"></stop>
            <stop stop-color="#6FBFFF" offset="99.9577703%"></stop>
        </radialGradient>
        <radialGradient cx="29.6788541%" cy="36.7200402%" fx="29.6788541%" fy="36.7200402%" r="81.9758803%" gradientTransform="translate(0.296789,0.367200),scale(1.000000,0.888889),rotate(54.318685),translate(-0.296789,-0.367200)" id="radialGradient-9">
            <stop stop-color="#DBEFFF" offset="0%"></stop>
            <stop stop-color="#93CFFF" offset="64.7117821%"></stop>
            <stop stop-color="#B7DFFF" offset="99.9577703%"></stop>
        </radialGradient>
    </defs>
    <g id="banner/06-海淘进口" stroke="none" stroke-width="1" fill="none" fill-rule="evenodd">
        <g id="家居日用">
            <rect id="蒙版" fill="url(#linearGradient-1)" x="0" y="0" width="240" height="105"></rect>
            <rect id="蒙版" fill="url(#linearGradient-2)" x="0" y="105" width="240" height="55"></rect>
            <g id="编组" transform="translate(24.000000, 35.000000)">
                <g id="编组-15" transform="translate(0.000000, 54.000000)">
                    <path d="M0,25 L12.8417242,25.0005906 C29.4402402,17.8266485 60.4654718,13 96,13 C131.534528,13 162.55976,17.8266485 179.158276,25.0005906 L192,25 L192,37 C192,50.254834 149.019336,61 96,61 C42.980664,61 0,50.254834 0,37 L0,37 L0,25 Z" id="形状结合" fill="#C9E7FF" opacity="0.25"></path>
                    <g id="椭圆形" transform="translate(0.000000, 0.463580)">
                        <mask id="mask-5" fill="white">
                            <use xlink:href="#path-4"></use>
                        </mask>
                        <use id="蒙版" fill="url(#linearGradient-3)" xlink:href="#path-4"></use>
                        <path d="M66.5894674,15.5364197 C58.2655589,20.5215825 85.2555494,35.7304123 101.264352,33.5364197 C141.548219,28.0155505 132.887766,29.0084591 155.382523,15.5364197 C162.343021,11.3677993 153.213055,-3.81083786 140,-2 C96.9203858,3.90402399 87.7208137,2.88092269 66.5894674,15.5364197 Z" id="路径-2" fill="#C9E7FF" filter="url(#filter-6)" mask="url(#mask-5)"></path>
                    </g>
                </g>
                <g id="地球" transform="translate(61.000000, 0.000000)">
                    <circle id="椭圆形" fill="url(#radialGradient-7)" cx="40" cy="40" r="40"></circle>
                    <path d="M38.845754,32.9785559 C38.8572982,32.9711353 38.8730955,32.9640639 38.8838295,32.9567306 C38.8410959,32.8687309 38.8066659,32.7913819 38.7906661,32.736644 C38.8101089,32.816612 38.8293492,32.897453 38.845754,32.9786432 L38.845754,32.9786432 L38.845754,32.9785559 Z M55.9602472,51.7845207 C55.9616649,51.7845207 55.9616649,51.7822858 55.9616649,51.7808636 C55.9566017,51.7786287 55.9385766,51.7786287 55.9353361,51.7735494 C55.9403993,51.7786287 55.9543738,51.7786287 55.9602472,51.7845207 L55.9602472,51.7845207 Z M56.3343113,51.7823462 C56.2282286,51.7639313 55.9899558,51.7972089 55.8957955,51.723456 C55.8380983,51.9388259 55.9252097,52.019683 56.3343113,51.7823462 L56.3343113,51.7823462 Z M68.1246332,13.3330556 C66.5897845,13.3794126 65.5208642,13.3825554 64.2872939,14.2364495 C63.7907328,14.5808532 63.4532524,15.037439 62.8225868,15.214748 C62.2568414,15.374422 61.6465395,15.234478 61.0854064,15.4254933 C59.0613067,16.1146498 59.3819045,20.4644374 56.7145207,19.8072332 C55.4615439,19.4991469 54.5783336,18.0136278 53.9478421,17.0438849 C53.3921045,16.1904274 52.3806203,15.4842471 53.0641967,14.4165521 C52.7524754,14.4966947 52.4201294,14.4051156 52.1131945,14.4635202 C52.54031,13.5223248 53.9736883,13.60465 54.211874,13.1236198 C54.8054672,11.9177268 52.5767733,11.7920129 51.9460207,11.6250055 C52.7066136,10.8114446 53.0918705,11.8984332 53.8424556,11.7139656 C54.5640616,11.5359582 53.46155,10.5824533 53.0292129,10.4755092 C52.8737874,10.436922 50.332763,11.1795943 51.8033877,9.8595112 C49.9880595,8.69875303 48.1732534,7.53799485 46.3578381,6.37618907 C46.0519475,7.6680738 48.7740696,8.40175398 49.6628494,8.8571176 C49.5248288,9.39052858 48.6980973,10.1673356 48.064821,9.9397411 C47.4679209,9.72497989 47.7101967,8.73402276 46.8094946,8.83345894 C46.1668196,10.3331208 48.1692503,9.89478093 48.3553084,10.8139764 C48.5667776,11.860981 47.5980223,11.4171411 47.2258191,11.3993316 C47.1370543,11.3943555 46.442948,10.6735959 46.4054405,11.219491 C46.3602748,11.8677032 47.5123904,11.6148786 47.5937581,12.2694638 C46.2515814,12.3238525 45.5666996,11.8379334 44.4741958,11.1095786 C43.1987667,10.2604861 42.5446916,10.337224 40.9821691,10.337224 C41.4494029,10.1446373 42.0930351,10.0016377 42.4923899,9.69197999 C42.7109081,9.52217895 43.5672278,8.68757846 43.6239677,8.50127747 C43.8656344,7.69670863 43.610566,7.75799415 42.8437073,7.23051965 C42.1614363,6.76241005 41.3344437,5.92230957 40.5082344,5.7571355 C37.5138131,5.15737552 39.5849059,8.46853948 37.3121776,8.92521262 C37.3511645,8.92722055 37.3929362,8.92931578 37.4266146,8.92931578 L37.2965132,8.92931578 C37.3023438,8.92887927 37.3068691,8.92626023 37.3122646,8.92521262 C36.7864634,8.90653014 35.8009995,8.77793531 35.4622137,9.05668839 C35.2228967,9.25276712 35.2031421,10.0396138 34.9354552,10.3239542 C34.4600411,10.83327 33.7507925,10.9346268 33.1830456,11.3017288 C32.6291355,11.659926 31.4075745,12.5793834 31.0819293,13.2033258 C29.8824725,15.5020566 33.7842969,16.2156574 35.263537,16.8873537 C35.9317971,17.1912495 37.8847979,17.6066292 38.2489079,18.1138497 C38.7365054,18.7952364 37.8281451,19.4341074 38.8470263,19.9127805 C39.1722364,20.0653832 39.8433683,20.0965497 40.1233256,19.7804317 C40.5788112,19.2657905 39.9385729,19.1495924 39.8295314,18.5548086 C39.6177141,17.409852 39.9661596,17.8646045 40.5400853,17.4395345 C41.7101279,16.5732436 41.446183,16.5202517 41.0255943,15.1393196 C40.8302246,14.4971312 40.0928671,12.7030894 40.7415467,12.2285195 C41.5869014,11.610077 43.3903943,12.5639311 44.039161,12.644161 C44.7938363,12.7367004 45.2218221,13.7853637 45.6332733,14.2146242 C45.9064427,14.4994883 46.3947365,15.1038753 46.8721521,15.0383993 C47.6296992,14.9346854 47.3124954,14.2701478 47.7520555,13.9638075 C48.9303654,13.143961 49.2410423,14.2576637 49.7105388,15.3718903 C50.1524485,16.4179346 50.5702525,16.8064254 51.3568657,17.4776851 C51.7224551,17.7899619 53.3228331,18.9050615 53.1720199,19.592472 C53.0693312,20.0554308 51.2410363,20.7576825 50.7517853,20.9129915 C48.9645659,21.4809738 45.6119523,19.9833199 45.2518455,22.8268108 C45.9452556,22.5674386 47.9176628,20.9511422 48.5089934,21.7175604 C48.7788559,22.064845 48.2955226,22.571018 48.4089154,22.9162946 C48.7464829,23.9515135 49.5424077,23.5908718 50.3768843,23.4234279 C50.3197093,23.4591341 50.26149,23.4903007 50.1997898,23.5179752 C51.34007,22.9303501 51.2212818,23.0524847 51.7447333,22.0994163 C51.915214,21.7876633 52.1697603,21.0340785 52.4101216,20.8110236 C53.2390287,20.0466134 53.3663453,20.5730403 53.8798761,21.1629352 C54.0144158,21.3182442 55.2836661,23.1519208 54.8316616,23.0602545 C53.3554673,22.7632554 51.9381014,22.8029775 50.7133205,23.6128717 C50.0079881,24.0805448 49.3406852,24.710773 48.4982024,25.0216529 C48.2958707,25.0953352 46.8006181,25.2378983 46.9776257,24.9820181 C47.2356529,24.609067 48.1238236,24.3620916 48.4740096,23.9594579 C47.5029917,23.5582211 46.6923598,24.4442421 45.9295042,24.962288 C45.1195684,25.346763 44.9312477,26.0631575 44.2417537,26.6909412 C43.9403883,26.9645435 43.3710749,27.0116862 43.0758883,27.3719787 C42.7894041,27.721795 42.7532019,28.2714441 42.4814248,28.6034509 C42.2911896,28.8361089 41.8023737,28.6954665 41.6036101,29.0457194 C41.3441904,29.5034401 41.8408385,29.9284229 41.731884,30.2579853 C41.5326852,30.8573088 40.3966692,31.3657516 39.9598069,31.7968454 C40.0184613,31.7407107 40.0762455,31.6829172 40.1334205,31.6239016 C39.6954268,32.0845905 39.1412557,32.4236688 38.7996851,32.9569925 C38.95659,33.7095298 39.4512365,35.505143 39.313651,35.9182528 C38.8582525,37.2768358 37.9733887,35.1790727 37.6150224,34.6369315 C36.3828444,32.7743582 33.9197068,34.0208462 32.2368296,34.1751076 C30.0854133,34.3728451 27.9773351,37.1746059 29.3047177,39.4487177 C29.9419101,40.539111 31.0136152,40.9612128 32.2434435,40.7088247 C33.3379489,40.4843731 33.6663789,38.9485685 34.6966603,38.9202829 C36.5900494,38.8698227 34.7386061,40.7822451 34.5743911,41.4836238 C34.4228817,42.1334947 34.8105752,42.19382 35.4774429,42.3550655 C35.9700879,42.4730095 36.6675011,42.1433598 37.0947907,42.4255176 C37.3633479,42.603525 37.3506424,43.5791171 37.7205829,43.2716419 C36.992015,43.877251 37.1622346,45.312921 37.9089037,45.8319273 C38.7369405,46.407854 39.7117874,45.8743557 40.5787241,46.0954899 C42.2152173,46.5148854 41.4339126,45.9705618 42.8711199,45.1001678 C43.8407454,44.5140268 44.000087,45.2109531 44.6630386,45.2135721 C45.1146081,45.2155801 45.4008312,44.5630028 46.1548973,44.7528832 C46.7697244,44.9079303 47.0126094,45.3840716 47.746834,45.4939839 C48.0476772,45.5386822 48.3586153,45.3802303 48.6457087,45.412008 C50.004072,45.5633012 51.0433169,46.4336952 52.1133685,47.2208911 C52.9951864,47.8687541 53.5791199,47.7374529 54.6095754,48.0327932 C55.361727,48.2482529 56.7507228,49.3407414 56.679711,50.2995717 C56.6667443,50.4711187 56.0088401,51.3336556 55.8964047,51.7224084 C56.0893377,51.8562413 57.4282945,51.5559248 57.8203393,51.5274645 C57.6912822,51.6778847 56.7790928,52.3209461 56.7790928,51.9800345 C56.7790928,52.1544625 57.4248136,52.5137074 57.5815444,52.6256277 C58.0574807,51.0760295 58.8386984,52.0730977 59.7795188,52.4570489 C60.5790987,52.7835557 61.5628221,52.8015398 62.4155738,53.0051265 C63.1397906,53.1781577 64.7357304,53.6682672 65.2723226,54.2616542 C65.9179564,54.9763027 65.4716955,56.1364497 64.9936706,56.8473443 C64.3688357,57.7787619 63.4263618,58.1372211 63.0367537,59.2331144 C62.7284264,60.1017624 62.9595631,60.9792278 62.7835999,61.942685 C62.5457623,63.2460062 62.3550049,62.7893331 61.5179175,63.5844734 C60.8142385,64.2545109 61.5061692,64.1381383 60.5478569,64.5649544 C59.5844972,64.9945641 58.7367059,64.8662312 58.0699252,65.9265056 C58.0966417,65.8600693 58.1183107,65.7929346 58.137108,65.7234427 C57.8554101,66.1179573 57.7149528,66.9268912 57.5816315,67.1922872 C57.2452823,67.869658 56.7815295,68.2968233 56.2501587,68.8608771 C56.0463476,69.0765986 54.1735833,71.64413 54.0650639,71.4377497 C53.925912,71.1695601 52.4490215,71.7067251 52.3787058,71.3244327 C52.4375343,71.6459634 52.3648689,71.5382336 52.7312415,71.7231377 C52.3920205,73.8329484 51.5021964,74.1475823 49.4371082,74.1688838 C49.614725,75.1829758 48.6886117,74.9809606 48.2585373,75.5261572 C48.0066888,75.8442832 47.8869432,76.7392089 47.7122853,77.1514457 C47.6033308,77.4106432 46.7973982,78.4484812 46.7973982,78.6538139 C46.7964409,78.8434323 47.068305,79.1207885 47.3233734,79.3867083 C45.8673688,79.675501 44.3828202,79.8769925 42.8751231,80 C43.1576042,79.6432869 43.2253961,79.3296133 42.3261734,79.286661 C42.5669698,78.6310282 43.132193,78.257204 43.371249,77.6215632 C43.4849028,77.3218578 43.3910905,77.2033899 43.4869043,76.9069147 C43.8157694,75.8814736 43.6732235,76.2686549 43.4878616,75.4718558 C43.053436,73.6057904 43.6423299,73.0953397 44.1494208,71.3870277 C44.6700006,69.6313984 44.6217021,67.3548422 44.9551794,65.4638959 C45.1133897,64.5589306 45.3723742,62.6754922 45.0592606,61.8195902 C44.7061157,60.8566568 43.15334,60.0979211 42.4421769,59.4495343 C41.4350439,58.5293785 40.9000181,57.5348421 40.1522177,56.3973933 C39.7723564,55.8191968 39.3399323,55.2527859 39.0437884,54.6245657 C38.4105121,53.2810859 39.0443105,54.0808532 39.1510024,53.2882446 C39.252995,52.5223502 39.0596268,51.8373842 39.3629067,51.0333392 C39.6982986,50.1445246 40.535473,49.5903359 40.8106441,48.6944498 C41.0580543,47.896254 40.8697336,46.893162 40.0525748,46.6273295 C39.5972634,46.4781316 39.0945236,46.8219241 38.6373846,46.7464085 C37.999322,46.6426945 37.2771068,46.1650691 36.7765426,45.7833878 C36.0775629,45.2487546 35.8157066,44.3809796 35.0716483,43.8742828 C34.4484668,43.452181 34.0053388,43.7053548 33.3389932,43.5071808 C32.6435815,43.3018481 32.2144644,42.4415811 31.6536794,42.1724311 C30.8123278,41.7685753 30.3383061,42.3486052 29.4499614,42.2311849 C28.6942418,42.1319233 27.5420392,41.2922594 26.8363587,40.9745699 C25.4010658,40.3303736 24.5271672,39.6187806 23.9535026,38.1577932 C23.4618149,36.9044084 22.7451693,36.320188 21.9016421,35.2766755 C21.0469758,34.2187583 20.7791148,33.3177215 19.4611308,33.0360875 C19.3070107,33.00204 19.7838172,34.145949 19.83316,34.2379646 C20.3037007,35.1123745 21.0109477,35.9112687 21.5796519,36.7257899 C22.4167393,37.9252226 22.0599394,38.1503726 21.2086671,36.9905748 C20.2349515,35.6635076 19.1056363,34.3439484 18.2612389,32.9388338 C17.9421205,32.4078673 18.0036468,32.0644239 17.4769753,31.5603462 C16.968579,31.0728557 16.3026685,30.8353961 15.7901821,30.3724373 C13.9474411,28.7094347 13.6120492,26.4896244 13.8221261,24.1198304 C13.8907883,23.346952 14.1690052,22.728946 14.0461268,21.9863611 C13.9450045,21.3698393 13.5819388,20.8597377 13.1287159,20.4053344 C12.9827761,20.171978 12.6157073,19.5970116 12.5944733,19.5602578 C12.1762343,18.8631569 11.8507631,18.1772305 11.185897,17.6053196 C10.8046432,17.2757572 9.81769993,16.5059343 8.88888889,15.8606903 C13.0626644,10.6382389 18.5243135,6.49928391 24.7901548,3.92991915 C24.8401068,4.24560068 24.9752556,4.5612822 25.1778483,4.86308282 C25.6932066,5.62941369 26.183937,5.56908849 27.1895035,5.78079415 C27.0816804,6.95185388 25.7173124,6.96102052 24.7941579,6.83434632 C23.6918203,6.68226745 22.5323077,6.31525275 21.5773893,7.28394805 C22.1046699,7.60224862 23.5522332,8.84105416 23.3598223,7.54672499 C24.415689,7.49382039 25.4363107,7.46213002 26.469638,7.58880422 C26.8833518,7.63970088 28.2703461,8.10685017 28.6461174,7.89357308 C28.8038925,7.80400194 28.9721106,7.02387746 29.1389363,6.78327506 C28.8445329,6.78528299 28.5288955,6.63582315 28.2351013,6.66410878 C28.9191998,5.78542112 29.6009487,6.47518875 30.4713664,6.87886999 C29.5130541,7.46326494 30.0817583,8.86349059 31.0187496,7.72612917 C31.7883061,6.79043377 30.8303419,6.11201531 29.8529712,5.56681865 C30.8385222,4.33037025 31.4464744,4.21827537 32.373806,5.61422326 C32.5267078,4.75334508 33.2191607,5.09827254 33.9427683,5.16156599 L33.9427683,4.94628096 C33.624085,4.95413808 33.2842549,4.77010693 32.9686175,4.80345603 C33.705975,3.62322966 33.2353472,3.35364323 34.2894733,2.96820796 C35.1288233,2.66186767 37.5239949,2.94751755 37.8188334,2.155782 C36.1428312,2.48228889 34.1182094,2.56059816 32.606074,3.3250957 C31.9540005,3.65457083 31.1769599,4.69555161 30.5260177,4.01931569 C29.8586278,3.3250957 31.0034333,2.2092977 31.5889333,1.86934641 L31.4489111,1.86934641 C34.1008045,1.30337204 36.8470324,1 39.6648813,1 C41.4856921,1 43.2745649,1.13522972 45.0308906,1.37557022 C44.4231995,1.69552951 44.8726803,1.91186215 44.4303355,2.23959125 C43.5849808,2.86300988 42.0839846,3.38367488 41.0778089,3.77784028 C42.356893,3.77443553 45.4525237,4.98067768 46.0478573,3.18113585 C45.6351878,3.1178424 45.2233015,3.05402514 44.8110671,2.99020789 C45.5814938,2.47766192 46.4410334,2.06306801 47.3434761,1.75856105 C55.4872161,3.37712728 62.730515,7.5210584 68.2413329,13.3351508 C68.2021719,13.3339286 68.163098,13.332881 68.1247202,13.3339286 L68.1247202,13.3339286 L68.1246332,13.3330556 Z M75.3359072,29.0262512 C75.4094427,28.8687596 75.5806197,28.8173391 75.6513705,28.6878713 C75.8001821,28.4150547 75.7670259,28.229976 75.9501251,27.9966196 C76.146278,27.7438823 76.4112672,27.681811 76.6302205,27.4845974 C76.7184632,27.4048913 76.7678061,27.3311217 76.8081854,27.255868 C77.4653063,29.0959176 77.989019,30.9985623 78.3702727,32.951929 C78.3585244,32.9658099 78.3518235,32.9870242 78.3374645,32.9983733 C78.2419988,33.0746747 77.6173379,33.1676506 77.4893251,33.1721029 C77.0371465,33.1894759 76.7012324,32.888461 76.3767186,32.6050809 C76.045939,32.317685 75.6576362,31.9320752 75.4227575,31.5596478 C75.1717792,31.1617284 75.3266826,30.7527218 75.3450447,30.2979693 C75.3597518,29.9158515 75.1743029,29.3704802 75.3360812,29.0263385 L75.3360812,29.0263385 L75.3359072,29.0262512 Z M75.845957,49.5197091 C75.0804907,48.8529017 74.1774388,47.9586744 73.6335365,47.0949153 C73.0523878,46.1736246 73.4104061,45.2256197 73.452874,44.1705834 C73.4882929,43.2834276 73.056478,42.0206142 73.4319881,41.2215453 C73.6044704,40.856975 73.9999091,40.7362373 74.1630798,40.437405 C74.5087406,39.8045578 74.4324202,39.3770433 74.8570121,38.8328069 C75.3124106,38.2483247 75.9248881,38.1048014 76.4324142,37.6468187 C76.964046,37.1663123 76.9492519,36.7873373 77.2862102,36.1718631 C77.532141,35.7214757 78.1111141,34.9709463 78.6591936,34.5786143 C78.9562948,36.5324175 79.1111111,38.5338873 79.1111111,40.5693172 C79.1111111,44.0920123 78.6440513,47.5057553 77.7789421,50.7586892 C77.0408885,50.5675867 76.4344157,50.0341757 75.8458699,49.5195345 L75.8458699,49.5195345 L75.845957,49.5197091 Z" id="形状" fill="url(#radialGradient-8)"></path>
                    <path d="M39.2249549,32.3833478 C39.2366452,32.3758332 39.2526424,32.3686723 39.2635123,32.3612462 C39.2202377,32.2721325 39.185372,32.1938045 39.1691696,32.1383737 C39.1888585,32.2193539 39.2083424,32.3012182 39.2249549,32.3834362 L39.2249549,32.3834362 L39.2249549,32.3833478 Z M56.5560872,51.4273628 C56.5575228,51.4273628 56.5575228,51.4250996 56.5575228,51.4236594 C56.5523955,51.4213962 56.5341422,51.4213962 56.5308607,51.4162525 C56.5359881,51.4213962 56.5501395,51.4213962 56.5560872,51.4273628 L56.5560872,51.4273628 Z M56.9348862,51.4251607 C56.8274607,51.4065127 56.5861719,51.4402116 56.4908196,51.365525 C56.4323921,51.5836211 56.5206062,51.6655018 56.9348862,51.4251607 L56.9348862,51.4251607 Z M68.8744528,12.4891702 C67.3201756,12.536114 66.2377247,12.5392966 64.9885395,13.4039995 C64.4856929,13.7527627 64.1439405,14.2151281 63.5052918,14.3946815 C62.9323851,14.5563768 62.3143579,14.4146613 61.7461218,14.6080945 C59.6964006,15.3059745 60.0210566,19.7108227 57.3199084,19.0452994 C56.0510712,18.7333133 55.156681,17.2289902 54.5182086,16.2469721 C53.9554364,15.3827112 52.9311486,14.667592 53.6233778,13.5863819 C53.3077107,13.6675389 52.9711578,13.5748006 52.6603376,13.6339445 C53.0928597,12.6808353 54.544382,12.7642025 54.7855827,12.2770833 C55.3866897,11.0559259 53.1297844,10.9286207 52.4910476,10.7594993 C53.2612683,9.93564015 53.6514019,11.0363881 54.4114881,10.8495854 C55.1422284,10.6693248 54.0257609,9.7037502 53.5879512,9.59545238 C53.4305583,9.55637675 50.857369,10.3084499 52.3466092,8.97165691 C50.5083022,7.7962056 48.6705238,6.62075428 46.8321286,5.44424209 C46.522366,6.7524798 49.2789453,7.49544707 50.1789755,7.95657478 C50.0392078,8.4967378 49.2020114,9.28337783 48.5607189,9.05290238 C47.9562631,8.83542267 48.2016057,7.83192178 47.2895022,7.93261665 C46.6386922,9.45126156 48.66647,9.00737309 48.8548833,9.93820394 C49.0690293,10.9984617 48.0880114,10.5490037 47.7110967,10.5309688 C47.6212083,10.5259296 46.9183158,9.79604647 46.8803335,10.3488516 C46.8345962,11.005269 48.0012955,10.7492441 48.0836932,11.4121152 C46.7245269,11.4671924 46.0309757,10.9751224 44.9246427,10.237548 C43.6330689,9.37770745 42.9707144,9.45541666 41.3884131,9.45541666 C41.8615613,9.26039217 42.5133408,9.11558251 42.9177507,8.80200506 C43.1390349,8.63005464 44.0061942,7.78488958 44.0636523,7.59623035 C44.308378,6.78147709 44.0500809,6.84353838 43.2735151,6.30938699 C42.5826077,5.83535195 41.7451469,4.98461729 40.9084793,4.81735241 C37.8761539,4.21000053 39.9734631,7.56307796 37.6719661,8.02553176 C37.7114465,8.02756511 37.7537469,8.02968686 37.7878517,8.02968686 L37.6561034,8.02968686 C37.6620078,8.02924483 37.6665904,8.02659264 37.6720542,8.02553176 C37.1395973,8.0066128 36.1416591,7.87639019 35.7985849,8.15867178 C35.5562385,8.35723253 35.5362339,9.15403929 35.2651586,9.44197889 C34.7837266,9.95774175 34.0655002,10.0603816 33.4905665,10.4321304 C32.9296449,10.7948618 31.6926211,11.7259579 31.3628539,12.3577983 C30.1482141,14.6856269 34.0994286,15.4082607 35.5973933,16.0884594 C36.2741124,16.3962021 38.2518347,16.8168396 38.6205537,17.3304808 C39.1143233,18.0204926 38.1944648,18.6674505 39.2262432,19.1521828 C39.5555699,19.3067171 40.2351971,19.3382782 40.5186983,19.0181587 C40.9799494,18.497003 40.3316069,18.3793341 40.2211851,17.7770214 C40.0066866,16.6175717 40.3595428,17.0780805 40.9407334,16.6476298 C42.1255866,15.7703733 41.8583007,15.7167106 41.432388,14.3182984 C41.2345453,13.667981 40.4878542,11.8512297 41.1447449,11.3706526 C42.0008003,10.7443818 43.8271222,11.71031 44.4841011,11.7915554 C45.2483293,11.8852662 45.6817326,12.9472037 46.0983921,13.3818979 C46.3750194,13.6703679 46.869494,14.2824054 47.3529529,14.2161006 C48.1200892,14.1110738 47.7988702,13.4381244 48.2439943,13.1279064 C49.4372195,12.297682 49.7518291,13.4254823 50.2272685,14.553813 C50.674772,15.6130983 51.0978647,16.0065067 51.894435,16.6862634 C52.2646521,17.0024931 53.8852881,18.1317078 53.7325659,18.8278197 C53.6285773,19.2966388 51.7771394,20.0077798 51.2816954,20.1650547 C49.471853,20.7402267 46.0768012,19.2236151 45.7121361,22.1030995 C46.4143235,21.8404442 48.4116979,20.2036883 49.0105137,20.979808 C49.2837922,21.3314886 48.7943408,21.8440688 48.9091689,22.1937161 C49.2510094,23.242039 50.0570092,22.8768322 50.9020488,22.7072688 C50.8441501,22.743427 50.7851939,22.7749881 50.7227126,22.8030129 C51.8774267,22.2079495 51.7571348,22.33163 52.2872123,21.3664975 C52.4598511,21.0507983 52.7176194,20.2876744 52.9610233,20.0617961 C53.8004228,19.2877097 53.9293511,19.8208003 54.4493823,20.4181622 C54.585625,20.5754372 55.8709418,22.4323249 55.4132156,22.3394982 C53.9183353,22.0387397 52.4830282,22.0789646 51.2427437,22.8991106 C50.528483,23.3727036 49.8527333,24.0109093 48.9995861,24.3257245 C48.7946933,24.4003395 47.2805134,24.5447071 47.4597616,24.285588 C47.721055,23.9079159 48.6204683,23.6578142 48.9750871,23.250084 C47.9917778,22.8437682 47.1708847,23.7410047 46.3983728,24.2656081 C45.5781846,24.6549499 45.3874801,25.3804127 44.6892583,26.016143 C44.3840782,26.2932086 43.8075583,26.3409481 43.5086351,26.7058012 C43.2185245,27.0600456 43.1818641,27.6166522 42.9066468,27.9528617 C42.7140035,28.1884647 42.2190001,28.046042 42.0177205,28.4007285 C41.7550171,28.8642432 42.2579518,29.2946054 42.1476181,29.6283396 C41.9458978,30.2352494 40.7955018,30.7501282 40.3531096,31.1866789 C40.4125065,31.1298336 40.4710221,31.0713086 40.5289209,31.0115459 C40.085383,31.4780664 39.524197,31.8214368 39.1783027,32.3615114 C39.3371938,33.1235744 39.8381016,34.941917 39.6987745,35.360256 C39.2376115,36.7360362 38.3415469,34.6117192 37.9786443,34.0627155 C36.7308692,32.1765652 34.2365526,33.4388316 32.5323732,33.5950457 C30.3537237,33.7952862 28.218961,36.6325123 29.563146,38.9354103 C30.2084041,40.0396061 31.293675,40.4670509 32.5390708,40.2114681 C33.6474307,39.9841753 33.980018,38.4289301 35.023341,38.4002864 C36.940697,38.3491875 35.0658177,40.2858178 34.899524,40.9960748 C34.7460968,41.6541719 35.1386978,41.7152607 35.8140069,41.8785473 C36.3128878,41.9979843 37.0191291,41.6641618 37.4518275,41.9498913 C37.7237841,42.1301519 37.7109177,43.1180933 38.0855411,42.806726 C37.3477507,43.4200011 37.5201251,44.8738441 38.2762456,45.3994201 C39.1147639,45.982637 40.1019507,45.4423856 40.9798613,45.6663189 C42.6370696,46.0910232 41.8458749,45.5398094 43.3012748,44.6583977 C44.283174,44.0648372 44.4445326,44.7705854 45.115876,44.7732376 C45.5731615,44.775271 45.8630077,44.1144332 46.6266189,44.3067171 C47.2492287,44.4637269 47.4951882,44.9458953 48.2387067,45.0571989 C48.5433581,45.102463 48.8582321,44.9420054 49.1489595,44.9741853 C50.5245173,45.1273936 51.5769173,46.0088053 52.6605138,46.8059657 C53.553494,47.4620295 54.144819,47.3290663 55.1883182,47.6281451 C55.9499907,47.846332 57.3565688,48.9526495 57.2846581,49.9236169 C57.2715273,50.0973354 56.6052952,50.9707905 56.4914365,51.3644642 C56.6868117,51.5 58.0427174,51.1958732 58.4397247,51.1670527 C58.309034,51.3193769 57.3852979,51.9705784 57.3852979,51.6253514 C57.3852979,51.8019874 58.0391924,52.1657797 58.1979072,52.2791166 C58.6798679,50.7099033 59.4709745,51.7195926 60.423704,52.1084039 C61.2334051,52.4390438 62.2295807,52.4572555 63.0931268,52.6634192 C63.8265109,52.8386407 65.4426525,53.3349541 65.986037,53.9358523 C66.6398433,54.659547 66.1879335,55.8343795 65.7038577,56.5542727 C65.0711135,57.4974804 64.1167096,57.860477 63.7221698,58.9702424 C63.4099396,59.849886 63.6440021,60.7384585 63.4658114,61.7141114 C63.2249632,63.0339304 63.0317912,62.5714766 62.1841078,63.3766819 C61.4715214,64.0552009 62.1722108,63.9373552 61.2017679,64.3695741 C60.2262138,64.8046219 59.3676909,64.6746645 58.6924699,65.7483601 C58.7195246,65.6810828 58.741468,65.6130983 58.7605032,65.5427268 C58.4752395,65.9422353 58.3330042,66.7614088 58.1979953,67.0301643 C57.8573885,67.7161094 57.3877654,68.1486819 56.8496684,68.7198755 C56.6432775,68.9383277 54.7468073,71.5383595 54.6369142,71.3293668 C54.4960009,71.0577824 53.0004156,71.6017469 52.9292098,71.2146153 C52.9887829,71.5402161 52.9151978,71.4311226 53.286208,71.6183673 C52.9426931,73.7548845 52.0416054,74.0735011 49.9503768,74.0950722 C50.1302419,75.1220008 49.1924056,74.9174284 48.7568872,75.4695263 C48.5018508,75.7916792 48.3805895,76.6979331 48.2037207,77.115388 C48.0933871,77.3778666 47.2772527,78.4288417 47.2772527,78.6367735 C47.2762834,78.8287922 47.5515888,79.1096593 47.8098859,79.3789451 C46.3354508,79.6713935 44.8321104,79.8754354 43.3053286,80 C43.5913854,79.6387715 43.6600355,79.3211274 42.7494301,79.2776314 C42.9932746,78.6136995 43.5656526,78.2351433 43.8077345,77.5914564 C43.922827,77.2879573 43.8278273,77.1679898 43.9248539,76.8677617 C44.2578818,75.8293403 44.1135315,76.2214226 43.9258233,75.4145375 C43.4858986,73.524851 44.0822468,73.0079389 44.5957567,71.2780027 C45.122926,69.5001503 45.0740161,67.194777 45.4117147,65.2798946 C45.5719277,64.363474 45.8341905,62.4561946 45.5171134,61.5894584 C45.1594983,60.614336 43.5870672,59.8459961 42.866902,59.1894018 C41.8470205,58.2575985 41.3052223,57.250473 40.5479561,56.0986262 C40.1632863,55.5131107 39.7253886,54.93953 39.425496,54.3033577 C38.7842035,52.9428718 39.4260247,53.7527627 39.5340671,52.9501211 C39.6373507,52.1745319 39.4415349,51.4808954 39.7486538,50.6666726 C40.0882912,49.7666071 40.9360627,49.2054034 41.2147169,48.2981771 C41.465259,47.4898775 41.2745544,46.4740881 40.4470519,46.2048906 C39.985977,46.0538041 39.4768734,46.4019485 39.0139479,46.325477 C38.3678085,46.2204502 37.6364513,45.7367788 37.1295509,45.3502661 C36.4217234,44.8088654 36.1565524,43.9301059 35.4030757,43.4169952 C34.7720058,42.9895504 34.3232685,43.2459289 33.6484882,43.0452464 C32.9442738,42.8373146 32.5097248,41.966158 31.9418413,41.6936011 C31.0898397,41.2846332 30.6098177,41.8720052 29.7102281,41.7530986 C28.9449425,41.6525806 27.7781551,40.802288 27.0635418,40.4805771 C25.6100807,39.8282264 24.7251201,39.1076259 24.1441939,37.6281451 C23.6462823,36.3588946 22.9205652,35.767279 22.0663605,34.7105575 C21.2008756,33.6392489 20.929624,32.7268066 19.5949567,32.4416076 C19.4388856,32.4071291 19.9217276,33.565518 19.9716951,33.6586983 C20.448192,34.5441767 21.1643915,35.3531835 21.7402945,36.1780151 C22.5879779,37.3926304 22.2266616,37.6206305 21.3646136,36.4461517 C20.3785725,35.1022862 19.2349622,33.7660237 18.3798762,32.3431229 C18.0567184,31.8054352 18.1190234,31.4576445 17.5856853,30.947186 C17.0708535,30.4535248 16.3965138,30.2130594 15.8775402,29.7442403 C14.0114734,28.0601871 13.6718361,25.8122779 13.8845721,23.4124865 C13.9541035,22.6298248 14.2358421,22.003996 14.1114083,21.2520112 C14.0090059,20.6276853 13.6413445,20.1111268 13.1823846,19.6509716 C13.0345974,19.4146613 12.6628822,18.8324169 12.6413795,18.7951978 C12.2178462,18.0892728 11.8882552,17.3946638 11.214973,16.8155136 C10.8288933,16.4817794 9.82945703,15.7022119 8.88888889,15.0488003 C13.115497,9.76024188 18.6462809,5.5688951 24.9914366,2.96700674 C25.0420209,3.28668423 25.1788805,3.60636172 25.3840377,3.9119826 C25.9059195,4.68801386 26.4028617,4.62692505 27.4211569,4.84131054 C27.3119689,6.0271938 25.9303304,6.03647648 24.9954904,5.90819881 C23.8791992,5.75419488 22.7050092,5.38253443 21.7380032,6.3634917 C22.2719583,6.68582138 23.7378452,7.94030801 23.5429987,6.62959492 C24.6122307,6.57602065 25.6457717,6.54392913 26.6921791,6.6722068 C27.1111298,6.72374772 28.515681,7.1968103 28.8962088,6.9808335 C29.0559812,6.89012854 29.2263286,6.10012907 29.395266,5.85648107 C29.097136,5.85851442 28.7775032,5.70716269 28.47999,5.73580635 C29.172748,4.84599607 29.8631266,5.54449493 30.7445623,5.95328607 C29.7741194,6.54507842 30.3500225,7.96302845 31.2988744,6.81127005 C32.0781721,5.8637304 31.1080818,5.17672437 30.1183394,4.62462648 C31.1163656,3.37252683 31.7320134,3.25901303 32.6710834,4.67263115 C32.8259207,3.80085577 33.5271388,4.15014941 34.259906,4.21424404 L34.259906,3.99623389 C33.9371888,4.00419046 33.593057,3.8178298 33.2734242,3.85160104 C34.0201153,2.6564351 33.5435302,2.38343618 34.6109997,1.99312198 C35.4609744,1.68290397 37.8864646,1.97216967 38.1850353,1.17041215 C36.4878178,1.50105204 34.4375679,1.58035256 32.9062916,2.35452729 C32.2459639,2.68817299 31.4590874,3.74233075 30.7999054,3.05753488 C30.1240676,2.35452729 31.2833643,1.22460527 31.8762756,0.880350797 L31.734481,0.880350797 C34.4199427,0.307212193 37.2009329,0 40.0544508,0 C41.8983098,0 43.7098266,0.136941493 45.4883843,0.380324275 C44.8730009,0.704333681 45.3281714,0.923404707 44.8802272,1.25528228 C44.0241718,1.88659229 42.5041757,2.41384798 41.4852636,2.81300281 C42.7805386,2.80955496 45.9153545,4.031066 46.518224,2.20874516 C46.1003308,2.14465053 45.6832308,2.08002546 45.2657782,2.01540039 C46.0459571,1.4963665 46.916377,1.07652457 47.830243,0.768163092 C56.0770683,2.4072175 63.4120546,6.60360344 68.9926296,12.491292 C68.952973,12.4900543 68.9134044,12.4889934 68.8745409,12.4900543 L68.8745409,12.4900543 L68.8744528,12.4891702 Z M76.1770087,28.3810138 C76.2514751,28.2215287 76.4248188,28.1694574 76.4964652,28.0383507 C76.6471605,27.7620807 76.6135846,27.5746592 76.7990015,27.3383489 C76.9976374,27.0824124 77.2659809,27.0195555 77.4877057,26.8198455 C77.5770654,26.7391304 77.6270329,26.664427 77.6679233,26.5882207 C78.3333622,28.4515621 78.8637041,30.3782909 79.2497839,32.3563838 C79.2378869,32.3704404 79.2311012,32.3919232 79.2165604,32.403416 C79.1198863,32.4806832 78.4873183,32.574836 78.357685,32.5793447 C77.8997826,32.5969376 77.5596165,32.2921124 77.2309949,32.0051453 C76.8960282,31.7141114 76.5028103,31.3236204 76.2649583,30.9464788 C76.0108031,30.5435225 76.1676673,30.1293385 76.1862619,29.6688297 C76.2011552,29.2818749 76.0133588,28.7296002 76.1771849,28.3811023 L76.1771849,28.3811023 L76.1770087,28.3810138 Z M76.6935148,49.1338826 C75.918359,48.4586347 75.0038762,47.553088 74.453089,46.6783952 C73.864584,45.7454427 74.2271341,44.7854377 74.2701396,43.7170465 C74.3060069,42.8186608 73.8687259,41.5398624 74.2489894,40.7306788 C74.423655,40.3614937 74.8240992,40.2392277 74.9893354,39.9366126 C75.3393716,39.2957547 75.2620852,38.8628287 75.6920516,38.3117032 C76.1532147,37.7198225 76.773445,37.5744824 77.2873955,37.1107025 C77.8257568,36.6241137 77.8107754,36.2403416 78.1519991,35.6170766 C78.401043,35.160988 78.9873448,34.4009583 79.542362,34.00366 C79.843224,35.982195 80,38.0089998 80,40.0701947 C80,43.6374808 79.5270281,47.0944357 78.6509681,50.3885461 C77.903572,50.1950245 77.2894224,49.6548615 76.6934267,49.1337058 L76.6934267,49.1337058 L76.6935148,49.1338826 Z" id="形状" fill="url(#radialGradient-9)"></path>
                </g>
            </g>
        </g>
    </g>
</svg>