<svg height="200" viewBox="0 -26 512 512" width="200" xmlns="http://www.w3.org/2000/svg" style="width: 1em; height: 1em; vertical-align: middle; fill: currentcolor; overflow: hidden; font-size: 200px;"><path d="m487.984375 216.292969h15v-10.582031c0-6.339844-5.160156-11.5-11.5-11.5h-32.480469v15h28.980469zm0 0" fill="#b3b3b3"></path><path d="m508.425781 254.527344c0 2.328125-1.90625 4.230468-4.230469 4.230468h-18.542968c-2.324219 0-4.226563-1.902343-4.226563-4.230468v-35.007813c0-2.328125 1.898438-4.230469 4.226563-4.230469h18.542968c2.324219 0 4.230469 1.902344 4.230469 4.230469zm0 0" fill="#c0272d"></path><path d="m417.746094 113.398438h-367.488282c-23.613281 0-42.757812 19.222656-42.757812 42.929687v39.5625h453.003906v-39.5625c0-23.707031-19.144531-42.929687-42.757812-42.929687zm0 0" fill="#c0272d"></path><path d="m247.035156 172.0625c0 2.75 2.25 5 5 5h66.898438c2.75 0 5-2.25 5-5v-23.375c0-2.75-2.25-5-5-5h-66.898438c-2.75 0-5 2.25-5 5zm0 0" fill="#c7fffd"></path><path d="m7.5 328.34375v31.210938h24.886719c3.085937 0 5.613281 2.535156 5.613281 5.632812v33.085938h26.925781c5.667969-15.421876 20.386719-26.445313 37.609375-26.445313 17.226563 0 31.945313 11.023437 37.609375 26.445313h51.789063v-69.929688zm0 0" fill="#c0272d"></path><path d="m461.566406 360.820312c0-3.097656 2.523438-5.632812 5.609375-5.632812h28.472657v-26.84375h-215.746094v69.929688h60.320312c5.664063-15.421876 20.382813-26.445313 37.609375-26.445313 17.226563 0 31.945313 11.023437 37.609375 26.445313h46.121094v-37.453126zm0 0" fill="#c0272d"></path><path d="m357.753906 314.34375v-74.710938h-76.851562v74.710938zm0 0" fill="#c7fffd"></path><path d="m358.753906 315.34375h-78.851562v-76.710938h78.851562zm0 0" fill="#a2f9f9"></path><g fill="#c7fffd"><path d="m116.03125 238.632812h75.90625v76.710938h-75.90625zm0 0"></path><path d="m466.554688 266.46875h-6.050782v-27.835938h-88.75v76.710938h123.894532v-19.675781c0-16.125-13.027344-29.199219-29.09375-29.199219zm0 0"></path><path d="m7.5 238.632812h95.53125v76.710938h-95.53125zm0 0"></path></g><path d="m116.03125 238.632812h75.90625v76.710938h-75.90625zm0 0" fill="#a2f9f9"></path><path d="m43.398438 172.0625c0 2.75 2.25 5 5 5h66.902343c2.75 0 5-2.25 5-5v-23.375c0-2.75-2.25-5-5-5h-66.902343c-2.75 0-5 2.25-5 5zm0 0" fill="#c7fffd"></path><path d="m145.21875 172.0625c0 2.75 2.25 5 5 5h66.898438c2.75 0 5-2.25 5-5v-23.375c0-2.75-2.25-5-5-5h-66.898438c-2.75 0-5 2.25-5 5zm0 0" fill="#fff"></path><path d="m348.851562 172.0625c0 2.75 2.25 5 5 5h66.898438c2.75 0 5-2.25 5-5v-23.375c0-2.75-2.25-5-5-5h-66.898438c-2.75 0-5 2.25-5 5zm0 0" fill="#fff"></path><path d="m205.933594 301.605469h11.050781v32.667969h-11.050781zm0 0" fill="#c7fffd"></path><path d="m205.933594 239.632812v46.972657h13.800781c6.753906 0 12.25 5.5 12.25 12.265625v38.136718c0 6.761719-5.496094 12.265626-12.25 12.265626h-13.800781v49h59.96875v-158.640626zm0 0" fill="#c7fffd"></path><path d="m7.5 231.007812v-5.117187h453.003906v-18h-453.003906v24.242187zm0 0" fill="#368c0e"></path><path d="m7.5 194.210938h453.003906v15h-453.003906zm0 0" fill="#266d00"></path><path d="m80.460938 447.277344h44.152343c11.433594-7.363282 19.019531-20.269532 19.019531-34.972656 0-22.90625-18.402343-41.476563-41.097656-41.476563-22.695312 0-41.097656 18.566406-41.097656 41.476563.003906 14.703124 7.589844 27.609374 19.023438 34.972656zm0 0" fill="#c5ccd3"></path><path d="m118.0625 412.304688c0-8.65625-6.949219-15.671876-15.527344-15.671876-8.574218 0-15.527344 7.015626-15.527344 15.671876 0 8.652343 6.953126 15.667968 15.527344 15.667968 8.578125 0 15.527344-7.015625 15.527344-15.667968zm0 0" fill="#fff"></path><path d="m102.535156 435.472656c-12.695312 0-23.027344-10.394531-23.027344-23.167968 0-12.777344 10.332032-23.171876 23.027344-23.171876 12.699219 0 23.027344 10.394532 23.027344 23.171876 0 12.773437-10.328125 23.167968-23.027344 23.167968zm0-31.339844c-4.425781 0-8.027344 3.664063-8.027344 8.171876 0 4.503906 3.601563 8.167968 8.027344 8.167968 4.429688 0 8.027344-3.664062 8.027344-8.167968 0-4.507813-3.601562-8.171876-8.027344-8.171876zm0 0" fill="#9ea7af"></path><path d="m355.757812 447.277344h44.152344c11.433594-7.363282 19.019532-20.269532 19.019532-34.972656 0-22.90625-18.402344-41.476563-41.097657-41.476563-22.695312 0-41.097656 18.566406-41.097656 41.476563 0 14.703124 7.589844 27.609374 19.023437 34.972656zm0 0" fill="#c5ccd3"></path><path d="m393.359375 412.304688c0-8.65625-6.949219-15.671876-15.527344-15.671876-8.574219 0-15.527343 7.015626-15.527343 15.671876 0 8.652343 6.953124 15.667968 15.527343 15.667968 8.578125 0 15.527344-7.015625 15.527344-15.667968zm0 0" fill="#fff"></path><path d="m377.832031 435.472656c-12.695312 0-23.027343-10.394531-23.027343-23.167968 0-12.777344 10.332031-23.171876 23.027343-23.171876 12.699219 0 23.027344 10.394532 23.027344 23.171876 0 12.773437-10.328125 23.167968-23.027344 23.167968zm0-31.339844c-4.425781 0-8.027343 3.664063-8.027343 8.171876 0 4.503906 3.601562 8.167968 8.027343 8.167968s8.027344-3.664062 8.027344-8.167968c0-4.507813-3.601563-8.171876-8.027344-8.171876zm0 0" fill="#9ea7af"></path><path d="m409.09375 350.054688h-20.722656c-4.144532 0-7.5-3.359376-7.5-7.5 0-4.144532 3.355468-7.5 7.5-7.5h20.722656c4.144531 0 7.5 3.355468 7.5 7.5 0 4.140624-3.355469 7.5-7.5 7.5zm0 0" fill="#9b0d17"></path><path d="m198.433594 341.773438h21.300781c2.609375 0 4.75-2.144532 4.75-4.765626v-38.136718c0-2.621094-2.136719-4.769532-4.75-4.769532h-21.300781zm0 0" fill="#c0272d"></path><path d="m33.652344 358.1875h-26.152344v34.453125c0 3.109375 2.515625 5.632813 5.613281 5.632813h26.152344v-34.453126c0-3.097656-2.527344-5.632812-5.613281-5.632812zm0 0" fill="#ffc502"></path><path d="m465.824219 353.820312c-3.085938 0-5.609375 2.535157-5.609375 5.636719v38.816407h29.820312c3.101563 0 5.613282-2.523438 5.613282-5.632813v-38.820313zm0 0" fill="#ffc502"></path><path d="m102.5625 67.226562c0-1.648437 1.167969-3.671874 2.601562-4.496093l9.015626-5.1875c1.433593-.824219 3.773437-.824219 5.203124 0l9.015626 5.1875c1.433593.824219 2.601562 2.847656 2.601562 4.496093v10.367188c0 1.652344-1.167969 3.671875-2.597656 4.496094l-9.019532 5.191406c-1.429687.824219-3.769531.824219-5.199218 0l-9.019532-5.191406c-1.429687-.820313-2.601562-2.84375-2.601562-4.496094zm0 0" fill="#a2f9f9"></path><path d="m352 44.035156c0-1.652344 1.171875-3.675781 2.601562-4.496094l9.015626-5.191406c1.433593-.824218 3.773437-.824218 5.203124 0l9.019532 5.191406c1.429687.820313 2.597656 2.84375 2.597656 4.496094v10.363282c0 1.652343-1.167969 3.671874-2.597656 4.496093l-9.019532 5.191407c-1.429687.824218-3.769531.824218-5.199218 0l-9.019532-5.191407c-1.429687-.824219-2.601562-2.847656-2.601562-4.496093zm0 0" fill="#a2f9f9"></path><path d="m462 94.226562c0-1.648437 1.171875-3.671874 2.601562-4.496093l9.015626-5.1875c1.433593-.824219 3.773437-.824219 5.203124 0l9.019532 5.1875c1.429687.824219 2.597656 2.847656 2.597656 4.496093v10.367188c0 1.652344-1.167969 3.671875-2.597656 4.496094l-9.019532 5.191406c-1.429687.824219-3.769531.824219-5.199218 0l-9.019532-5.191406c-1.429687-.820313-2.601562-2.84375-2.601562-4.496094zm0 0" fill="#c7fffd"></path><path d="m200 20.226562c0-1.648437 1.171875-3.671874 2.601562-4.496093l9.015626-5.1875c1.433593-.824219 3.773437-.824219 5.203124 0l9.019532 5.1875c1.429687.824219 2.597656 2.847656 2.597656 4.496093v10.367188c0 1.652344-1.167969 3.671875-2.597656 4.496094l-9.019532 5.191406c-1.429687.824219-3.769531.824219-5.199218 0l-9.019532-5.191406c-1.429687-.820313-2.601562-2.84375-2.601562-4.496094zm0 0" fill="#c7fffd"></path><path d="m42 10.300781c0-1.648437 1.171875-3.671875 2.601562-4.496093l9.015626-5.1875c1.433593-.824219 3.773437-.824219 5.203124 0l9.019532 5.1875c1.429687.824218 2.597656 2.847656 2.597656 4.496093v10.367188c0 1.648437-1.167969 3.671875-2.597656 4.496093l-9.019532 5.191407c-1.429687.824219-3.769531.824219-5.199218 0l-9.019532-5.191407c-1.429687-.820312-2.601562-2.847656-2.601562-4.496093zm0 0" fill="#c7fffd"></path><path d="m504.5 461.277344h-497c-4.140625 0-7.5-3.355469-7.5-7.5 0-4.140625 3.359375-7.5 7.5-7.5h497c4.144531 0 7.5 3.359375 7.5 7.5 0 4.144531-3.355469 7.5-7.5 7.5zm0 0" fill="#b3b3b3"></path><path d="m372.753906 310.890625v-71.257813h87.75v-15h-453.003906v15h94.53125v74.710938h-94.53125v15h183.4375v68.929688h15v-49h13.796875c6.753906 0 12.25-5.503907 12.25-12.265626v-38.136718c0-6.765625-5.496094-12.269532-12.25-12.269532h-13.796875v-46.96875h59.964844v158.636719h15v-68.925781h214.75v-15h-122.898438zm-181.820312 3.453125h-73.902344v-74.710938h73.90625v74.710938zm26.050781-12.738281v32.667969h-11.050781v-32.667969zm140.769531 12.285156v.453125h-76.851562v-74.710938h76.851562zm0 0" fill="#9b0d17"></path></svg>