<?xml version="1.0" standalone="no"?><!DOCTYPE svg PUBLIC "-//W3C//DTD SVG 1.1//EN" "http://www.w3.org/Graphics/SVG/1.1/DTD/svg11.dtd"><svg t="1601122649812" class="icon" viewBox="0 0 1024 1024" version="1.1" xmlns="http://www.w3.org/2000/svg" p-id="1441" xmlns:xlink="http://www.w3.org/1999/xlink" width="48" height="48"><defs><style type="text/css"></style></defs><path d="M768 746.666667m-42.666667 0a42.666667 42.666667 0 1 0 85.333334 0 42.666667 42.666667 0 1 0-85.333334 0Z" fill="#5E666F" p-id="1442"></path><path d="M256 746.666667m-42.666667 0a42.666667 42.666667 0 1 0 85.333334 0 42.666667 42.666667 0 1 0-85.333334 0Z" fill="#5E666F" p-id="1443"></path><path d="M768 640a106.666667 106.666667 0 1 1-106.666667 106.666667 105.408 105.408 0 0 1 21.333334-64 106.88 106.88 0 0 1 85.333333-42.666667z m42.666667 106.666667a42.666667 42.666667 0 1 0-42.666667 42.666666 42.794667 42.794667 0 0 0 42.666667-42.666666zM341.333333 682.666667a105.408 105.408 0 0 1 21.333334 64 106.666667 106.666667 0 1 1-21.333334-64z m-42.666666 64a42.666667 42.666667 0 1 0-42.666667 42.666666 42.794667 42.794667 0 0 0 42.666667-42.666666z" fill="#7C8691" p-id="1444"></path><path d="M1002.666667 640v106.666667h-128a106.666667 106.666667 0 0 0-106.666667-106.666667h234.666667zM341.333333 682.666667h341.333334a105.408 105.408 0 0 0-21.333334 64H362.666667a105.408 105.408 0 0 0-21.333334-64zM42.666667 640h213.333333a106.666667 106.666667 0 0 0-106.666667 106.666667H21.333333v-106.666667z" fill="#5CE0BF" p-id="1445"></path><path d="M896 448h-170.666667v-170.666667c149.333333 0 170.666667 170.666667 170.666667 170.666667z" fill="#87D7F5" p-id="1446"></path><path d="M896 256c106.666667 85.333333 85.333333 384 85.333333 384H768a106.88 106.88 0 0 0-85.333333 42.666667H341.333333a106.88 106.88 0 0 0-85.333333-42.666667H42.666667a532.373333 532.373333 0 0 1 12.8-149.333333h216.96a42.410667 42.410667 0 0 0 39.253333-25.813334A427.328 427.328 0 0 0 341.333333 298.666667s0-128 149.333334-128c0 0 298.666667 0 405.333333 85.333333z m-170.666667 192h170.666667s-21.333333-170.666667-170.666667-170.666667z m-64 0v-192l-128-21.333333c-64 0-106.666667 0-106.666666 64a756.970667 756.970667 0 0 1-21.333334 149.333333z" fill="#64A6F0" p-id="1447"></path><path d="M42.666667 597.333333h940.266666c-0.426667 26.24-1.6 42.666667-1.6 42.666667H768a106.88 106.88 0 0 0-85.333333 42.666667H341.333333a106.88 106.88 0 0 0-85.333333-42.666667H42.666667c0-14.549333 0-28.8 0.213333-42.666667" fill="#5597E6" p-id="1448"></path><path d="M661.333333 256v192H405.333333a756.970667 756.970667 0 0 0 21.333334-149.333333c0-64 42.666667-64 106.666666-64z" fill="#87D7F5" p-id="1449"></path><path d="M661.333333 256v192H405.333333" fill="#F8FAFD" p-id="1450"></path><path d="M341.333333 298.666667a427.328 427.328 0 0 1-29.653333 166.186666A42.410667 42.410667 0 0 1 272.426667 490.666667H55.466667c16-51.84 52.906667-85.333333 136.533333-85.333334 149.333333 0 149.333333-106.666667 149.333333-106.666666z" fill="#5CE0BF" p-id="1451"></path><path d="M256 874.666667a128 128 0 1 1 102.4-204.8A125.994667 125.994667 0 0 1 384 746.666667a128.128 128.128 0 0 1-128 128z m0-213.333334a85.333333 85.333333 0 1 0 85.333333 85.333334 83.904 83.904 0 0 0-17.066666-51.2A86.037333 86.037333 0 0 0 256 661.333333z" fill="#2A3244" p-id="1452"></path><path d="M256 810.666667a64 64 0 1 1 64-64 64 64 0 0 1-64 64z m0-85.333334a21.333333 21.333333 0 1 0 21.333333 21.333334 21.333333 21.333333 0 0 0-21.333333-21.333334zM768 874.666667a128.128 128.128 0 0 1-128-128 125.866667 125.866667 0 0 1 25.6-76.8A128 128 0 1 1 768 874.666667z m0-213.333334a85.952 85.952 0 0 0-68.266667 34.133334A83.861333 83.861333 0 0 0 682.666667 746.666667a85.333333 85.333333 0 1 0 85.333333-85.333334z" fill="#2A3244" p-id="1453"></path><path d="M768 810.666667a64 64 0 1 1 64-64 64 64 0 0 1-64 64z m0-85.333334a21.333333 21.333333 0 1 0 21.333333 21.333334 21.333333 21.333333 0 0 0-21.333333-21.333334zM362.666667 725.333333h298.666666v42.666667H362.666667z" fill="#2A3244" p-id="1454"></path><path d="M1002.666667 768h-128v-42.666667h106.666666v-64H768v-42.666666h234.666667a21.333333 21.333333 0 0 1 21.333333 21.333333v106.666667a21.333333 21.333333 0 0 1-21.333333 21.333333zM149.333333 768H21.333333a21.333333 21.333333 0 0 1-21.333333-21.333333v-106.666667a21.333333 21.333333 0 0 1 21.333333-21.333333h234.666667v42.666666H42.666667v64h106.666666z" fill="#2A3244" p-id="1455"></path><path d="M1002.666667 641.514667l-42.666667-3.029334c5.696-80 2.858667-301.632-77.376-365.824C782.933333 192.917333 493.589333 192 490.666667 192c-126.549333 0-128 102.4-128 106.666667 0 1.28-1.941333 128-170.666667 128-83.2 0-105.408 35.541333-116.138667 70.4A521.322667 521.322667 0 0 0 64 640H21.333333a547.306667 547.306667 0 0 1 13.781334-155.733333C55.936 416.832 107.264 384 192 384c126.549333 0 128-81.856 128-85.333333 0-1.493333 1.941333-149.333333 170.666667-149.333334 12.501333 0 307.434667 1.024 418.666666 90.005334C1023.445333 330.666667 1003.52 628.864 1002.666667 641.514667z" fill="#2A3244" p-id="1456"></path><path d="M272.426667 512H42.666667v-42.666667h229.76a21.034667 21.034667 0 0 0 19.584-12.8A407.466667 407.466667 0 0 0 320 298.666667h42.666667a445.866667 445.866667 0 0 1-31.36 174.528A63.552 63.552 0 0 1 272.426667 512zM661.333333 469.333333H405.333333a21.333333 21.333333 0 0 1-20.693333-26.496A739.648 739.648 0 0 0 405.333333 298.666667c0-85.333333 65.066667-85.333333 128-85.333334a19.605333 19.605333 0 0 1 3.52 0.298667l128 21.333333A21.333333 21.333333 0 0 1 682.666667 256v192a21.333333 21.333333 0 0 1-21.333334 21.333333z m-229.312-42.666666H640v-152.597334L531.562667 256C461.76 256 448 259.733333 448 298.666667a684.8 684.8 0 0 1-15.978667 128zM896 469.333333h-170.666667a21.333333 21.333333 0 0 1-21.333333-21.333333v-170.666667a21.333333 21.333333 0 0 1 21.333333-21.333333c133.013333 0 183.637333 123.861333 191.829334 189.354667A21.333333 21.333333 0 0 1 896 469.333333z m-149.333333-42.666666h123.157333c-10.538667-39.658667-41.216-115.2-123.157333-126.570667zM341.333333 661.333333h341.333334v42.666667H341.333333z" fill="#2A3244" p-id="1457"></path></svg>