<svg id="flat" height="200" viewBox="0 0 64 64" width="200" xmlns="http://www.w3.org/2000/svg" style="width: 1em; height: 1em; vertical-align: middle; fill: currentcolor; overflow: hidden; font-size: 200px;"><path d="m44.429 29v3.857l-12.858 5.143v-9z" fill="#7c8c9a"></path><path d="m12 50a10 10 0 1 1 10-10 10.011 10.011 0 0 1 -10 10zm0-15.556a5.556 5.556 0 1 0 5.556 5.556 5.563 5.563 0 0 0 -5.556-5.556z" fill="#394d5c"></path><path d="m26 45h-6a1 1 0 0 1 -.518-.145l-3.627-2.271 1.035-1.636 3.389 2.052h5.721z" fill="#a8bccb"></path><path d="m53 32a9 9 0 1 0 9 9 9.011 9.011 0 0 0 -9-9zm0 15a6 6 0 1 1 6-6 6.007 6.007 0 0 1 -6 6z" fill="#394d5c"></path><path d="m53 45a4 4 0 1 1 4-4 4.005 4.005 0 0 1 -4 4z" fill="#7c8c9a"></path><circle cx="53" cy="41" fill="#a8bccb" r="2"></circle><path d="m4 29h-2v-4a1 1 0 0 1 .649-.937l9.078-3.4.7 1.873-8.427 3.157z" fill="#394d5c"></path><path d="m37 26-4 4 .04 7.19-.04.31-7-1.5-4-6 5-4z" fill="#7c8c9a"></path><path d="m49.281 26.007h2.001v15.486h-2.001z" fill="#5a6470" transform="matrix(.936 -.351 .351 .936 -8.649 19.804)"></path><circle cx="12" cy="40" fill="#a8bccb" r="3"></circle><path d="m7 19 9 1 2 4 9 2-5 4z" fill="#ffc200"></path><path d="m58 30-9 3-4 5v7h-21v-4.913l19-7.087v-3h-10l2-4h12a2.006 2.006 0 0 0 2-2v-.87a2 2 0 0 0 -.97-1.71l-4.03-2.42 9 1 4 5z" fill="#ffc200"></path><path d="m43 26h-16a9.141 9.141 0 0 1 6.382-4.875l.618-.125h5a4 4 0 0 1 4 4z" fill="#ff9300"></path><path d="m28.844 30h2.156a2 2 0 0 1 2 2v5.156a.844.844 0 0 1 -.844.844h-5.312a.844.844 0 0 1 -.844-.844v-4.312a2.844 2.844 0 0 1 2.844-2.844z" fill="#5a6470"></path><path d="m57 25h-4l-2 3h4l3 2z" fill="#ff9300"></path><path d="m26.86 39.795-14.581 1.486-.838-2.666 15.247-2.833z" fill="#5a6470"></path><path d="m44 19 9 1-7-6z" fill="#a8bccb"></path><circle cx="29.5" cy="37.5" fill="#394d5c" r="3.5"></circle><path d="m15.777 42.968-8.777-4.234 2.172-4.503 8.122 6.341z" fill="#7c8c9a"></path></svg>