<svg version="1.1" id="Layer_1" xmlns="http://www.w3.org/2000/svg" xmlns:xlink="http://www.w3.org/1999/xlink" x="0px" y="0px" viewBox="0 0 489.932 489.932" style="width: 1em; height: 1em; vertical-align: middle; fill: currentcolor; overflow: hidden; font-size: 200px;" xml:space="preserve" width="200" height="200">
<g id="XMLID_297_">
	<g id="XMLID_631_">
		<g id="XMLID_626_">
			<polygon style="fill:#ED6D64;" points="466.966,271.759 313.862,271.759 313.862,179.897 405.724,179.897 			"></polygon>
		</g>
		<g id="XMLID_372_">
			<rect x="313.862" y="271.759" style="fill:#FBB03B;" width="160.758" height="68.897"></rect>
		</g>
		<g id="XMLID_629_">
			<polygon style="fill:#E9483D;" points="466.966,271.759 382.759,271.759 382.759,179.897 405.724,179.897 			"></polygon>
		</g>
		<g id="XMLID_630_">
			<polygon style="fill:#FFFFFF;" points="405.724,179.897 359.793,179.897 359.793,241.138 451.655,241.138 			"></polygon>
		</g>
		<g id="XMLID_613_">
			<rect x="382.759" y="271.759" style="fill:#F7931E;" width="91.862" height="68.897"></rect>
		</g>
		<g id="XMLID_296_">
			<path style="fill:#ED6D64;" d="M290.897,348.31H7.656V118.655h235.539c26.345,0,47.702,21.357,47.702,47.702V348.31z"></path>
		</g>
		<g id="XMLID_615_">
			<circle style="fill:#E9483D;" cx="401.897" cy="359.793" r="34.448"></circle>
		</g>
		<g id="XMLID_623_">
			<path style="fill:#ED6D64;" d="M401.897,394.241c-19.025,0-34.448-15.423-34.448-34.448c0-19.025,15.423-34.448,34.448-34.448"></path>
		</g>
		<g id="XMLID_614_">
			<rect x="436.345" y="317.69" style="fill:#E9483D;" width="45.931" height="30.621"></rect>
		</g>
		<g id="XMLID_333_">
			<rect x="84.207" y="118.655" style="fill:#E9483D;" width="206.689" height="229.655"></rect>
		</g>
		<g id="XMLID_523_">
			<rect x="0.001" y="256.651" style="fill:#FBB03B;" width="290.896" height="91.659"></rect>
		</g>
		<g id="XMLID_252_">
			<rect x="15.311" y="118.656" style="fill:#FFFFFF;" width="15.311" height="229.655"></rect>
		</g>
		<g id="XMLID_567_">
			<path style="fill:#F7931E;" d="M290.897,348.31H93.482c-5.122,0-9.275-4.153-9.275-9.275v-82.384h206.69V348.31z"></path>
		</g>
		<g id="XMLID_585_">
			<circle style="fill:#E9483D;" cx="153.104" cy="348.31" r="45.931"></circle>
		</g>
		<g id="XMLID_896_">
			<path style="fill:#ED6D64;" d="M153.104,394.241c-25.367,0-45.931-20.564-45.931-45.931s20.564-45.931,45.931-45.931"></path>
		</g>
		<g id="XMLID_895_">
			<circle style="fill:#F7931E;" cx="153.104" cy="348.31" r="22.966"></circle>
		</g>
		<g id="XMLID_593_">
			<path style="fill:#FBB03B;" d="M153.104,371.276c-12.684,0-22.966-10.282-22.966-22.965c0-12.684,10.282-22.966,22.966-22.966"></path>
		</g>
		<g id="XMLID_259_">
			<path style="fill:#1D1D1B;" d="M153.104,378.931c-16.884,0-30.621-13.736-30.621-30.62c0-16.884,13.737-30.62,30.621-30.62
				s30.621,13.736,30.621,30.62C183.725,365.195,169.988,378.931,153.104,378.931z M153.104,333c-8.442,0-15.31,6.868-15.31,15.31
				c0,8.442,6.868,15.311,15.31,15.311s15.31-6.868,15.31-15.311C168.414,339.868,161.546,333,153.104,333z"></path>
		</g>
		<g id="XMLID_621_">
			<circle style="fill:#F7931E;" cx="401.897" cy="359.793" r="11.483"></circle>
		</g>
		<g id="XMLID_876_">
			<path style="fill:#1D1D1B;" d="M401.897,378.931c-10.553,0-19.138-8.585-19.138-19.138c0-10.553,8.586-19.138,19.138-19.138
				s19.138,8.585,19.138,19.138C421.035,370.346,412.449,378.931,401.897,378.931z M401.897,355.965
				c-2.111,0-3.827,1.717-3.827,3.828c0,2.111,1.717,3.828,3.827,3.828c2.111,0,3.827-1.717,3.827-3.828
				C405.724,357.682,404.007,355.965,401.897,355.965z"></path>
		</g>
		<g id="XMLID_882_">
			<rect x="352.138" y="264.104" style="fill:#1D1D1B;" width="22.965" height="15.31"></rect>
		</g>
		<path style="fill:#1D1D1B;" d="M382.759,149.276h-84.207v-38.275H0v244.965h100.073c3.727,25.933,26.083,45.931,53.031,45.931
			s49.304-19.998,53.031-45.931h92.417v-191.38h84.207V149.276z M153.104,386.586c-21.105,0-38.275-17.171-38.275-38.276
			c0-21.105,17.17-38.276,38.275-38.276s38.275,17.171,38.275,38.276C191.379,369.416,174.209,386.586,153.104,386.586z
			 M283.241,340.655h-77.106c-3.727-25.933-26.083-45.931-53.031-45.931s-49.304,19.998-53.031,45.931H15.311v-76.552h267.93
			V340.655z M283.241,248.793H15.311V126.311h267.93v22.965h-45.93v15.31h45.93V248.793z"></path>
		<path style="fill:#1D1D1B;" d="M489.931,310.035h-61.242v17.304c-7.285-6.025-16.623-9.649-26.793-9.649
			c-16.327,0-30.502,9.347-37.484,22.965h-42.896v-61.241h15.31v-15.31h-15.31v-76.552h30.621v61.241h92.869l10.207,15.311h-64.801
			v15.31h75.007l1.545,2.318v28.303h15.311v-32.938l-31.906-47.861l-40.706-56.993H306.207v183.723h53.768
			c-0.114,1.262-0.182,2.537-0.182,3.828c0,23.216,18.888,42.103,42.104,42.103s42.104-18.887,42.104-42.103
			c0-1.291-0.068-2.566-0.182-3.828h46.113v-45.931H489.931z M434.594,233.483h-67.145v-45.931h34.336L434.594,233.483z
			 M401.897,386.586c-14.774,0-26.793-12.019-26.793-26.793S387.123,333,401.897,333s26.793,12.02,26.793,26.793
			C428.689,374.567,416.67,386.586,401.897,386.586z M474.62,340.655H444v-15.31h30.62V340.655z"></path>
	</g>
	<g id="XMLID_634_">
		<rect x="15.311" y="363.621" style="fill:#1D1D1B;" width="68.896" height="15.31"></rect>
	</g>
	<g id="XMLID_635_">
		<rect x="68.897" y="386.586" style="fill:#1D1D1B;" width="30.621" height="15.31"></rect>
	</g>
	<g id="XMLID_636_">
		<rect x="252.621" y="371.276" style="fill:#1D1D1B;" width="99.517" height="15.31"></rect>
	</g>
	<g id="XMLID_637_">
		<rect x="214.346" y="179.897" style="fill:#1D1D1B;" width="38.276" height="15.31"></rect>
	</g>
	<g id="XMLID_638_">
		<rect x="191.38" y="149.276" style="fill:#1D1D1B;" width="30.62" height="15.31"></rect>
	</g>
	<g id="XMLID_639_">
		<rect x="53.586" y="172.242" style="fill:#1D1D1B;" width="53.586" height="15.31"></rect>
	</g>
	<g id="XMLID_640_">
		<rect x="99.518" y="195.207" style="fill:#1D1D1B;" width="38.275" height="15.31"></rect>
	</g>
	<g id="XMLID_641_">
		<rect x="22.966" y="218.173" style="fill:#1D1D1B;" width="91.862" height="15.31"></rect>
	</g>
	<g id="XMLID_298_">
		<rect x="321.518" y="187.552" style="fill:#FFFFFF;" width="15.311" height="76.551"></rect>
	</g>
	<g id="XMLID_299_">
		<rect x="321.518" y="279.414" style="fill:#FFFFFF;" width="15.311" height="61.241"></rect>
	</g>
	<g id="XMLID_300_">
		<rect x="15.311" y="88.035" style="fill:#1D1D1B;" width="122.483" height="15.31"></rect>
	</g>
</g>
<g>
</g>
<g>
</g>
<g>
</g>
<g>
</g>
<g>
</g>
<g>
</g>
<g>
</g>
<g>
</g>
<g>
</g>
<g>
</g>
<g>
</g>
<g>
</g>
<g>
</g>
<g>
</g>
<g>
</g>
</svg>